<svg class="main-svg" xmlns="http://www.w3.org/2000/svg" xmlns:xlink="http://www.w3.org/1999/xlink" width="1200" height="600" style="" viewBox="0 0 1200 600"><rect x="0" y="0" width="1200" height="600" style="fill: rgb(255, 255, 255); fill-opacity: 1;"/><defs id="defs-e7b1c0"><g class="clips"><clipPath id="clipe7b1c0xyplot" class="plotclip"><rect width="1152" height="519"/></clipPath><clipPath class="axesclip" id="clipe7b1c0x"><rect x="48" y="0" width="1152" height="600"/></clipPath><clipPath class="axesclip" id="clipe7b1c0y"><rect x="0" y="0" width="1200" height="519"/></clipPath><clipPath class="axesclip" id="clipe7b1c0xy"><rect x="48" y="0" width="1152" height="519"/></clipPath></g><g class="gradients"/><g class="patterns"/></defs><g class="bglayer"/><g class="layer-below"><g class="imagelayer"/><g class="shapelayer"/></g><g class="cartesianlayer"><g class="subplot xy"><g class="layer-subplot"><g class="shapelayer"/><g class="imagelayer"/></g><g class="gridlayer"><g class="x"><path class="xgrid crisp" transform="translate(183.26,0)" d="M0,0v519" style="stroke: rgb(31, 39, 45); stroke-opacity: 1; stroke-width: 1px;"/><path class="xgrid crisp" transform="translate(319.76,0)" d="M0,0v519" style="stroke: rgb(31, 39, 45); stroke-opacity: 1; stroke-width: 1px;"/><path class="xgrid crisp" transform="translate(456.25,0)" d="M0,0v519" style="stroke: rgb(31, 39, 45); stroke-opacity: 1; stroke-width: 1px;"/><path class="xgrid crisp" transform="translate(592.74,0)" d="M0,0v519" style="stroke: rgb(31, 39, 45); stroke-opacity: 1; stroke-width: 1px;"/><path class="xgrid crisp" transform="translate(729.24,0)" d="M0,0v519" style="stroke: rgb(31, 39, 45); stroke-opacity: 1; stroke-width: 1px;"/><path class="xgrid crisp" transform="translate(865.73,0)" d="M0,0v519" style="stroke: rgb(31, 39, 45); stroke-opacity: 1; stroke-width: 1px;"/><path class="xgrid crisp" transform="translate(1002.22,0)" d="M0,0v519" style="stroke: rgb(31, 39, 45); stroke-opacity: 1; stroke-width: 1px;"/><path class="xgrid crisp" transform="translate(1138.71,0)" d="M0,0v519" style="stroke: rgb(31, 39, 45); stroke-opacity: 1; stroke-width: 1px;"/></g><g class="y"><path class="ygrid crisp" transform="translate(0,489.34)" d="M48,0h1152" style="stroke: rgb(31, 39, 45); stroke-opacity: 1; stroke-width: 1px;"/><path class="ygrid crisp" transform="translate(0,392.38)" d="M48,0h1152" style="stroke: rgb(31, 39, 45); stroke-opacity: 1; stroke-width: 1px;"/><path class="ygrid crisp" transform="translate(0,295.42)" d="M48,0h1152" style="stroke: rgb(31, 39, 45); stroke-opacity: 1; stroke-width: 1px;"/><path class="ygrid crisp" transform="translate(0,198.46)" d="M48,0h1152" style="stroke: rgb(31, 39, 45); stroke-opacity: 1; stroke-width: 1px;"/><path class="ygrid crisp" transform="translate(0,101.5)" d="M48,0h1152" style="stroke: rgb(31, 39, 45); stroke-opacity: 1; stroke-width: 1px;"/><path class="ygrid crisp" transform="translate(0,4.54)" d="M48,0h1152" style="stroke: rgb(31, 39, 45); stroke-opacity: 1; stroke-width: 1px;"/></g></g><g class="zerolinelayer"/><path class="xlines-below"/><path class="ylines-below"/><g class="overlines-below"/><g class="xaxislayer-below"/><g class="yaxislayer-below"/><g class="overaxes-below"/><g class="plot" transform="translate(48,0)" clip-path="url(#clipe7b1c0xyplot)"><g class="scatterlayer mlayer"><g class="trace scatter trace3dd57b" style="stroke-miterlimit: 2; opacity: 1;"><g class="fills"/><g class="errorbars"/><g class="lines"><path class="js-line" d="M0,25.95L2.73,281.02L6.82,413.45L9.55,391.15L13.65,405.44L17.74,365.9L20.47,397.5L24.57,410.15L28.66,412.37L35.49,403.29L39.58,385.59L42.31,406.72L46.41,408.02L49.14,396.48L53.23,424.56L57.33,416.35L60.06,419.33L64.15,420.43L68.25,416.29L70.98,411.34L75.07,416.82L79.17,432.9L81.9,406.25L85.99,431.42L90.09,426.84L92.82,441.84L96.91,398.3L99.64,422.85L103.73,416.85L110.56,451.37L114.65,417.29L118.75,424.07L121.48,440.72L125.57,427.4L129.67,435.19L132.4,454.54L136.49,433.58L139.22,421.33L143.32,422.54L147.41,425.28L150.14,454.09L154.24,431.27L158.33,437.49L161.06,451.06L165.16,441.2L169.25,422.46L171.98,448.08L176.08,435.55L180.17,431.53L182.9,435.44L187,437.19L189.73,455.59L193.82,460.85L197.91,435.09L200.64,426.88L204.74,442.49L208.83,441.91L215.66,425.95L219.75,458.61L222.48,433.59L226.58,432.99L230.67,435.38L233.4,469.37L237.5,416.95L240.23,447.4L244.32,445.98L248.42,429.73L251.15,454.53L255.24,444.8L262.07,453.44L266.16,443.62L270.26,444.17L272.99,429.88L277.08,449.19L279.81,451.36L283.91,442.24L288,456.54L290.73,425.9L294.82,446.34L298.92,418.36L301.65,449.34L305.74,440.69L309.84,438.53L312.57,440.92L316.66,427.63L323.49,459.51L327.58,428.57L330.31,427.46L334.41,446.37L338.5,463.62L341.23,453.96L345.33,442.56L349.42,462.22L352.15,460.9L356.25,426.32L363.07,457.11L367.17,472.88L369.9,458.2L373.99,448.42L378.09,452.96L380.82,443.12L389,439.62L391.73,442.08L395.83,451.97L399.92,448.29L402.65,455.09L406.75,436.46L410.84,441.55L413.57,450.45L417.67,446.48L420.4,458.98L424.49,440.25L428.59,457.78L431.32,473.37L435.41,456.97L439.51,443.33L442.24,467.54L450.43,441.06L453.16,447.67L457.25,460.52L461.35,470.25L464.08,447.16L468.17,446.88L470.9,466.18L475,457.83L479.09,450.16L481.82,438.55L485.91,439.22L490.01,463.25L492.74,444.7L496.83,445.59L500.93,436.93L503.66,445.39L507.75,456.76L510.48,446.85L514.58,441.66L518.67,445.72L521.4,460.25L525.5,466.51L529.59,451.38L532.32,466.74L536.42,462.26L540.51,452.43L543.24,462.41L547.34,467.95L551.43,456.61L554.16,451.9L558.26,461.86L560.99,459.27L565.08,438.05L569.18,454.26L571.91,441.2L576,440.95L580.09,466.49L582.82,457.13L586.92,450.07L591.01,455.16L593.74,442.09L597.84,463.08L600.57,444.45L604.66,451.74L608.76,463.99L611.49,459.57L615.58,423.73L619.68,447.65L622.41,465.85L626.5,454.47L633.33,482.05L637.42,476.74L641.52,452.97L644.25,468.28L648.34,469.08L651.07,476.98L655.17,428.59L659.26,471.53L661.99,447.56L666.09,459.65L670.18,467.94L672.91,448.19L677,476.52L681.1,463.55L683.83,459.98L687.92,460.61L692.02,456.01L694.75,460.2L698.84,451.28L701.57,451.23L705.67,472.24L709.76,471.05L712.49,449.09L716.59,457.14L720.68,458.28L723.41,443.44L727.51,458.92L731.6,463.71L734.33,477.27L738.43,480.88L741.16,478.73L745.25,457.79L749.35,473.24L752.08,477.72L756.17,460.31L760.27,468.8L763,459.48L767.09,454.8L771.18,466.35L773.91,466.13L778.01,472.11L782.1,463.61L784.83,461.53L788.93,472.81L791.66,461.43L795.75,464.23L799.85,466.47L802.58,470.48L806.67,471.32L810.77,463.4L813.5,458.94L817.59,457.22L821.69,462.55L824.42,454.68L828.51,459.83L831.24,465.97L835.34,469.02L839.43,477.5L842.16,463.32L846.26,481.13L850.35,469.25L853.08,478.23L857.18,451.46L861.27,470.56L864,466.03L868.09,456.15L872.19,461.39L874.92,473.01L879.01,479.67L881.74,471.16L885.84,477.3L889.93,459.8L892.66,458.28L896.76,445.6L900.85,463.41L903.58,456.02L907.68,453.83L911.77,453.3L914.5,470.6L918.6,440.99L922.69,473.09L925.42,457.36L929.52,470.58L932.25,457.1L936.34,478.25L940.44,466.85L943.17,475.95L947.26,475.61L951.36,475.59L954.09,469.13L958.18,490.99L962.27,489.73L965,482.92L969.1,490.54L971.83,456.57L975.92,476.62L980.02,468.07L982.75,466.79L986.84,456.88L990.94,475.73L993.67,461.1L997.76,475.96L1001.86,470.84L1004.59,484.75L1008.68,450.99L1012.78,476.76L1015.51,470.76L1019.6,475.56L1022.33,487.29L1026.43,458.58L1030.52,473.14L1033.25,469.06L1037.35,475.37L1041.44,486.56L1044.17,471.03L1048.27,439.88L1052.36,478.95L1055.09,452.9L1059.18,480.3L1061.91,476.12L1066.01,473.46L1070.1,491.87L1072.83,472.04L1076.93,481.5L1081.02,476.6L1083.75,452.36L1087.85,479.71L1091.94,471.07L1094.67,485.72L1098.77,483.1L1102.86,484.49L1105.59,471.06L1109.69,463.76L1112.42,478.32L1116.51,493.05L1120.61,479.46L1123.34,470.33L1127.43,485.03L1131.53,471.4L1134.26,469.25L1138.35,484.52L1142.45,467.48L1149.27,475.09L1152,444.27" style="vector-effect: non-scaling-stroke; fill: none; stroke: rgb(34, 114, 180); stroke-opacity: 1; stroke-width: 2px; opacity: 1;"/></g><g class="points"/><g class="text"/></g><g class="trace scatter tracef52817" style="stroke-miterlimit: 2; opacity: 1;"><g class="fills"/><g class="errorbars"/><g class="lines"><path class="js-line" d="M0,25.95L2.73,281.02L6.82,413.45L9.55,391.15L13.65,405.44L17.74,365.9L20.47,397.5L24.57,410.15L28.66,412.37L35.49,403.29L39.58,385.59L42.31,406.72L46.41,408.02L49.14,396.48L53.23,424.56L57.33,416.35L60.06,419.33L64.15,420.43L68.25,416.29L70.98,411.34L75.07,416.82L79.17,432.9L81.9,406.25L85.99,431.42L90.09,426.84L92.82,441.84L96.91,398.3L99.64,422.85L103.73,416.85L110.56,451.37L114.65,417.29L118.75,424.07L121.48,440.72L125.57,427.4L129.67,435.19L132.4,454.54L136.49,433.58L139.22,421.33L143.32,422.54L147.41,425.28L150.14,454.09L154.24,431.27L158.33,437.49L161.06,451.06L165.16,441.2L169.25,422.46L171.98,448.08L176.08,435.55L180.17,431.53L182.9,435.44L187,437.19L189.73,455.59L193.82,460.85L197.91,435.09L200.64,426.88L204.74,442.49L208.83,441.91L215.66,425.95L219.75,458.61L222.48,433.59L226.58,432.99L230.67,435.38L233.4,469.37L237.5,416.95L240.23,447.4L244.32,445.98L248.42,429.73L251.15,454.53L255.24,444.8L262.07,453.44L266.16,443.62L270.26,444.17L272.99,429.88L277.08,449.19L279.81,451.36L283.91,442.24L288,456.54L290.73,425.9L294.82,446.34L298.92,418.36L301.65,449.34L305.74,440.69L309.84,438.53L312.57,440.92L316.66,427.63L323.49,459.51L327.58,428.57L330.31,427.46L334.41,446.37L338.5,463.62L341.23,453.96L345.33,442.56L349.42,462.22L352.15,460.9L356.25,426.32L363.07,457.11L367.17,472.88L369.9,458.2L373.99,448.42L378.09,452.96L380.82,443.12L389,439.62L391.73,442.08L395.83,451.97L399.92,448.29L402.65,455.09L406.75,436.46L410.84,441.55L413.57,450.45L417.67,446.48L420.4,458.98L424.49,440.25L428.59,457.78L431.32,473.37L435.41,456.97L439.51,443.33L442.24,467.54L450.43,441.06L453.16,447.67L457.25,460.52L461.35,470.25L464.08,447.16L468.17,446.88L470.9,466.18L475,457.83L479.09,450.16L481.82,438.55L485.91,439.22L490.01,463.25L492.74,444.7L496.83,445.59L500.93,436.93L503.66,445.39L507.75,456.76L510.48,446.85L514.58,441.66L518.67,445.72L521.4,460.25L525.5,466.51L529.59,451.38L532.32,466.74L536.42,462.26L540.51,452.43L543.24,462.41L547.34,467.95L551.43,456.61L554.16,451.9L558.26,461.86L560.99,459.27L565.08,438.05L569.18,454.26L571.91,441.2L576,440.95L580.09,466.49L582.82,457.13L586.92,450.07L591.01,455.16L593.74,442.09L597.84,463.08L600.57,444.45L604.66,451.74L608.76,463.99L611.49,459.57L615.58,423.73L619.68,447.65L622.41,465.85L626.5,454.47L633.33,482.05L637.42,476.74L641.52,452.97L644.25,468.28L648.34,469.08L651.07,476.98L655.17,428.59L659.26,471.53L661.99,447.56L666.09,459.65L670.18,467.94L672.91,448.19L677,476.52L681.1,463.55L683.83,459.98L687.92,460.61L692.02,456.01L694.75,460.2L698.84,451.28L701.57,451.23L705.67,472.24L709.76,471.05L712.49,449.09L716.59,457.14L720.68,458.28L723.41,443.44L727.51,458.92L731.6,463.71L734.33,477.27L738.43,480.88L741.16,478.73L745.25,457.79L749.35,473.24L752.08,477.72L756.17,460.31L760.27,468.8L763,459.48L767.09,454.8L771.18,466.35L773.91,466.13L778.01,472.11L782.1,463.61L784.83,461.53L788.93,472.81L791.66,461.43L795.75,464.23L799.85,466.47L802.58,470.48L806.67,471.32L810.77,463.4L813.5,458.94L817.59,457.22L821.69,462.55L824.42,454.68L828.51,459.83L831.24,465.97L835.34,469.02L839.43,477.5L842.16,463.32L846.26,481.13L850.35,469.25L853.08,478.23L857.18,451.46L861.27,470.56L864,466.03L868.09,456.15L872.19,461.39L874.92,473.01L879.01,479.67L881.74,471.16L885.84,477.3L889.93,459.8L892.66,458.28L896.76,445.6L900.85,463.41L903.58,456.02L907.68,453.83L911.77,453.3L914.5,470.6L918.6,440.99L922.69,473.09L925.42,457.36L929.52,470.58L932.25,457.1L936.34,478.25L940.44,466.85L943.17,475.95L947.26,475.61L951.36,475.59L954.09,469.13L958.18,490.99L962.27,489.73L965,482.92L969.1,490.54L971.83,456.57L975.92,476.62L980.02,468.07L982.75,466.79L986.84,456.88L990.94,475.73L993.67,461.1L997.76,475.96L1001.86,470.84L1004.59,484.75L1008.68,450.99L1012.78,476.76L1015.51,470.76L1019.6,475.56L1022.33,487.29L1026.43,458.58L1030.52,473.14L1033.25,469.06L1037.35,475.37L1041.44,486.56L1044.17,471.03L1048.27,439.88L1052.36,478.95L1055.09,452.9L1059.18,480.3L1061.91,476.12L1066.01,473.46L1070.1,491.87L1072.83,472.04L1076.93,481.5L1081.02,476.6L1083.75,452.36L1087.85,479.71L1091.94,471.07L1094.67,485.72L1098.77,483.1L1102.86,484.49L1105.59,471.06L1109.69,463.76L1112.42,478.32L1116.51,493.05L1120.61,479.46L1123.34,470.33L1127.43,485.03L1131.53,471.4L1134.26,469.25L1138.35,484.52L1142.45,467.48L1149.27,475.09L1152,444.27" style="vector-effect: non-scaling-stroke; fill: none; stroke: rgb(34, 114, 180); stroke-opacity: 0.14902; stroke-width: 2px; opacity: 1;"/></g><g class="points"/><g class="text"/></g></g></g><g class="overplot"/><path class="xlines-above crisp" d="M0,0" style="fill: none;"/><path class="ylines-above crisp" d="M0,0" style="fill: none;"/><g class="overlines-above"/><g class="xaxislayer-above"><g class="xtick"><text text-anchor="middle" x="0" y="531" transform="translate(183.26,0)" style="font-family: 'Open Sans', verdana, arial, sans-serif; font-size: 11px; fill: rgb(146, 164, 179); fill-opacity: 1; white-space: pre; opacity: 1;">1000</text></g><g class="xtick"><text text-anchor="middle" x="0" y="531" style="font-family: 'Open Sans', verdana, arial, sans-serif; font-size: 11px; fill: rgb(146, 164, 179); fill-opacity: 1; white-space: pre; opacity: 1;" transform="translate(319.76,0)">2000</text></g><g class="xtick"><text text-anchor="middle" x="0" y="531" style="font-family: 'Open Sans', verdana, arial, sans-serif; font-size: 11px; fill: rgb(146, 164, 179); fill-opacity: 1; white-space: pre; opacity: 1;" transform="translate(456.25,0)">3000</text></g><g class="xtick"><text text-anchor="middle" x="0" y="531" style="font-family: 'Open Sans', verdana, arial, sans-serif; font-size: 11px; fill: rgb(146, 164, 179); fill-opacity: 1; white-space: pre; opacity: 1;" transform="translate(592.74,0)">4000</text></g><g class="xtick"><text text-anchor="middle" x="0" y="531" style="font-family: 'Open Sans', verdana, arial, sans-serif; font-size: 11px; fill: rgb(146, 164, 179); fill-opacity: 1; white-space: pre; opacity: 1;" transform="translate(729.24,0)">5000</text></g><g class="xtick"><text text-anchor="middle" x="0" y="531" style="font-family: 'Open Sans', verdana, arial, sans-serif; font-size: 11px; fill: rgb(146, 164, 179); fill-opacity: 1; white-space: pre; opacity: 1;" transform="translate(865.73,0)">6000</text></g><g class="xtick"><text text-anchor="middle" x="0" y="531" style="font-family: 'Open Sans', verdana, arial, sans-serif; font-size: 11px; fill: rgb(146, 164, 179); fill-opacity: 1; white-space: pre; opacity: 1;" transform="translate(1002.22,0)">7000</text></g><g class="xtick"><text text-anchor="middle" x="0" y="531" style="font-family: 'Open Sans', verdana, arial, sans-serif; font-size: 11px; fill: rgb(146, 164, 179); fill-opacity: 1; white-space: pre; opacity: 1;" transform="translate(1138.71,0)">8000</text></g></g><g class="yaxislayer-above"><g class="ytick"><text text-anchor="end" x="47" y="3.8499999999999996" transform="translate(0,489.34)" style="font-family: 'Open Sans', verdana, arial, sans-serif; font-size: 11px; fill: rgb(146, 164, 179); fill-opacity: 1; white-space: pre; opacity: 1;">0.1</text></g><g class="ytick"><text text-anchor="end" x="47" y="3.8499999999999996" style="font-family: 'Open Sans', verdana, arial, sans-serif; font-size: 11px; fill: rgb(146, 164, 179); fill-opacity: 1; white-space: pre; opacity: 1;" transform="translate(0,392.38)">0.2</text></g><g class="ytick"><text text-anchor="end" x="47" y="3.8499999999999996" style="font-family: 'Open Sans', verdana, arial, sans-serif; font-size: 11px; fill: rgb(146, 164, 179); fill-opacity: 1; white-space: pre; opacity: 1;" transform="translate(0,295.42)">0.3</text></g><g class="ytick"><text text-anchor="end" x="47" y="3.8499999999999996" style="font-family: 'Open Sans', verdana, arial, sans-serif; font-size: 11px; fill: rgb(146, 164, 179); fill-opacity: 1; white-space: pre; opacity: 1;" transform="translate(0,198.46)">0.4</text></g><g class="ytick"><text text-anchor="end" x="47" y="3.8499999999999996" style="font-family: 'Open Sans', verdana, arial, sans-serif; font-size: 11px; fill: rgb(146, 164, 179); fill-opacity: 1; white-space: pre; opacity: 1;" transform="translate(0,101.5)">0.5</text></g><g class="ytick"><text text-anchor="end" x="47" y="3.8499999999999996" style="font-family: 'Open Sans', verdana, arial, sans-serif; font-size: 11px; fill: rgb(146, 164, 179); fill-opacity: 1; white-space: pre; opacity: 0;" transform="translate(0,4.54)">0.6</text></g></g><g class="overaxes-above"/></g></g><g class="polarlayer"/><g class="ternarylayer"/><g class="geolayer"/><g class="funnelarealayer"/><g class="pielayer"/><g class="iciclelayer"/><g class="treemaplayer"/><g class="sunburstlayer"/><g class="glimages"/><defs id="topdefs-e7b1c0"><g class="clips"/><clipPath id="legende7b1c0"><rect width="257" height="29" x="0" y="0"/></clipPath></defs><g class="layer-above"><g class="imagelayer"/><g class="shapelayer"/></g><g class="infolayer"><g class="legend" pointer-events="all" transform="translate(48,570.9000000000001)"><rect class="bg" shape-rendering="crispEdges" style="stroke: rgb(68, 68, 68); stroke-opacity: 1; fill: rgb(255, 255, 255); fill-opacity: 1; stroke-width: 0px;" width="257" height="29" x="0" y="0"/><g class="scrollbox" transform="" clip-path="url(#legende7b1c0)"><g class="groups"><g class="traces" transform="translate(0,14.5)" style="opacity: 1;"><text class="legendtext" text-anchor="start" x="40" y="4.680000000000001" style="font-family: 'Open Sans', verdana, arial, sans-serif; font-size: 12px; fill: rgb(232, 236, 240); fill-opacity: 1; white-space: pre;">useful-flea-243</text><g class="layers" style="opacity: 1;"><g class="legendfill"/><g class="legendlines"><path class="js-line" d="M5,0h30" style="fill: none; stroke: rgb(34, 114, 180); stroke-opacity: 1; stroke-width: 2px;"/></g><g class="legendsymbols"><g class="legendpoints"/></g></g><rect class="legendtoggle" x="0" y="-9.5" width="125.61363983154297" height="19" style="fill: rgb(0, 0, 0); fill-opacity: 0;"/></g><g class="traces" transform="translate(128.11363983154297,14.5)" style="opacity: 1;"><text class="legendtext" text-anchor="start" x="40" y="4.680000000000001" style="font-family: 'Open Sans', verdana, arial, sans-serif; font-size: 12px; fill: rgb(232, 236, 240); fill-opacity: 1; white-space: pre;">useful-flea-243</text><g class="layers" style="opacity: 1;"><g class="legendfill"/><g class="legendlines"><path class="js-line" d="M5,0h30" style="fill: none; stroke: rgb(34, 114, 180); stroke-opacity: 0.14902; stroke-width: 2px;"/></g><g class="legendsymbols"><g class="legendpoints"/></g></g><rect class="legendtoggle" x="0" y="-9.5" width="125.61363983154297" height="19" style="fill: rgb(0, 0, 0); fill-opacity: 0;"/></g></g></g><rect class="scrollbar" rx="20" ry="3" width="0" height="0" style="fill: rgb(128, 139, 164); fill-opacity: 1;" x="0" y="0"/></g><g class="g-gtitle"/><g class="g-xtitle"><text class="xtitle" x="624" y="571" text-anchor="middle" style="font-family: 'Open Sans', verdana, arial, sans-serif; font-size: 14px; fill: rgb(232, 236, 240); opacity: 1; font-weight: normal; white-space: pre;">Step</text></g><g class="g-ytitle"/></g></svg>
